<svg version="1.1" viewBox="0.0 0.0 96.0 96.0" fill="none" stroke="none" stroke-linecap="square" stroke-miterlimit="10" xmlns:xlink="http://www.w3.org/1999/xlink" xmlns="http://www.w3.org/2000/svg"><clipPath id="p.0"><path d="m0 0l96.0 0l0 96.0l-96.0 0l0 -96.0z" clip-rule="nonzero"/></clipPath><g clip-path="url(#p.0)"><path fill="#000000" fill-opacity="0.0" d="m0 0l96.0 0l0 96.0l-96.0 0z" fill-rule="evenodd"/><path fill="#000000" fill-opacity="0.0" d="m-62.897675 -2.0866141l45.76378 0l0 101.6693l-45.76378 0z" fill-rule="evenodd"/><path fill="#202124" d="m-44.159897 19.484634l-3.109375 2.28125l1.1875 3.640625l-3.109375 -2.25l-3.09375 2.25l1.171875 -3.640625l-3.09375 -2.28125l3.828125 0l1.1875 -3.625l1.203125 3.625l3.828125 0z" fill-rule="nonzero"/><path fill="#202124" d="m-40.6998 27.953384l0 -15.0l11.999998 0l0 15.0l-11.999998 0zm0.375 -0.375l11.249998 0l0 -14.25l-11.249998 0l0 14.25z" fill-rule="nonzero"/><path fill="#202124" d="m-40.859535 46.159634l0.84375 -6.84375l0.84375 6.84375l5.4375 -4.3125l-4.3125 5.4375l6.843748 0.84375l-6.843748 0.84375l4.3125 5.4375l-5.4375 -4.3125l-0.84375 6.84375l-0.84375 -6.84375l-5.4375 4.3125l4.3125 -5.4375l-6.84375 -0.84375l6.84375 -0.84375l-4.3125 -5.4375l5.4375 4.3125z" fill-rule="nonzero"/><path fill="#ffffff" d="m4.8031497 48.74803l35.560654 -7.636196l7.636196 -35.560654l7.636196 35.560654l35.560658 7.636196l-35.560658 7.636196l-7.636196 35.560658l-7.636196 -35.560658z" fill-rule="evenodd"/></g></svg>